<svg width="335.6486328125px" height="122px" xmlns="http://www.w3.org/2000/svg" viewBox="82.17568359375 14 335.6486328125 122" style="background: rgba(0, 0, 0, 0);" preserveAspectRatio="xMidYMid"><defs><filter id="editing-extrude-glow"><feFlood flood-color="#333333" result="flood-1"></feFlood><feMorphology operator="erode" radius="1" in="SourceAlpha" result="erode"></feMorphology><feComposite operator="in" in="flood-1" in2="erode" result="comp1"></feComposite><feConvolveMatrix order="3,3" divisor="1" in="comp1" result="convolve" kernelMatrix="0 0 0 1 1 1 0 0 0"></feConvolveMatrix><feOffset dx="-3" dy="0" in="convolve" result="extrude"></feOffset><feComposite operator="in" in="flood-1" in2="extrude" result="comp-extrude"></feComposite><feFlood flood-color="#000000" result="flood-2"></feFlood><feComposite operator="in" in="flood-2" in2="SourceAlpha" result="comp2"></feComposite><feMorphology operator="dilate" radius="1" in="comp2" result="dilate"></feMorphology><feOffset dx="-4.5" dy="0" in="dilate" result="offset"></feOffset><feGaussianBlur in="offset" stdDeviation="5.8" result="blur"></feGaussianBlur><feComponentTransfer in="blur" result="shadow"><feFuncA type="linear" slope="0.8" intercept="-0.2"></feFuncA></feComponentTransfer><feMerge><feMergeNode in="shadow"></feMergeNode><feMergeNode in="comp-extrude"></feMergeNode><feMergeNode in="SourceGraphic"></feMergeNode></feMerge></filter></defs><g filter="url(#editing-extrude-glow)"><g transform="translate(134.81800013780594, 97.4000015258789)"><path d="M7.68 0L0.64 0L8.32-42.24L22.08-42.24L32.06-13.18L37.38-42.24L44.48-42.18L36.67 0L22.02 0L12.80-27.97L7.68 0ZM47.68-39.68L47.68-39.68L47.68-39.68Q48.58-41.47 50.53-42.46L50.53-42.46L50.53-42.46Q52.48-43.46 55.17-43.46L55.17-43.46L55.17-43.46Q59.39-43.46 61.92-40.42L61.92-40.42L61.92-40.42Q64.45-37.38 64.45-30.72L64.45-30.72L64.45-7.87L79.10-42.18L86.66-42.18L88.38-9.79L88.19-7.94L103.42-42.18L112.19-42.18L91.71 0L78.08 0L76.80-19.46L68.35 0L52.93 0L51.01-30.72L51.01-30.72Q50.82-34.18 49.89-36.45L49.89-36.45L49.89-36.45Q48.96-38.72 47.68-39.68ZM142.40-13.25L142.40-13.25L142.40-13.25Q144.06-12.03 144.06-9.44L144.06-9.44L144.06-9.44Q144.06-6.85 142.94-5.02L142.94-5.02L142.94-5.02Q141.82-3.20 139.65-1.79L139.65-1.79L139.65-1.79Q134.98 1.22 126.82 1.22L126.82 1.22L126.82 1.22Q118.66 1.22 114.21-3.04L114.21-3.04L114.21-3.04Q109.76-7.30 109.76-14.85L109.76-14.85L109.76-14.85Q109.76-25.54 115.33-33.66L115.33-33.66L115.33-33.66Q119.55-39.68 127.10-42.24L127.10-42.24L127.10-42.24Q131.01-43.52 134.85-43.52L134.85-43.52L134.85-43.52Q138.69-43.52 141.06-43.01L141.06-43.01L141.06-43.01Q143.42-42.50 145.22-41.47L145.22-41.47L145.22-41.47Q149.12-39.23 149.12-35.65L149.12-35.65L149.12-35.65Q149.12-32.38 146.05-29.95L146.05-29.95L146.05-29.95Q143.23-27.78 140.93-27.78L140.93-27.78L140.93-27.78Q138.62-27.78 137.66-28.10L137.66-28.10L137.66-28.10Q137.92-30.40 137.92-31.90L137.92-31.90L137.92-31.90Q137.92-33.41 137.86-34.50L137.86-34.50L137.86-34.50Q137.79-35.58 137.47-36.61L137.47-36.61L137.47-36.61Q136.83-38.98 134.88-38.98L134.88-38.98L134.88-38.98Q132.93-38.98 130.98-37.15L130.98-37.15L130.98-37.15Q129.02-35.33 127.36-32.26L127.36-32.26L127.36-32.26Q123.58-25.28 123.58-17.02L123.58-17.02L123.58-17.02Q123.58-13.06 125.82-10.78L125.82-10.78L125.82-10.78Q128.06-8.51 132.86-8.51L132.86-8.51L132.86-8.51Q136.45-8.51 139.84-10.88L139.84-10.88L139.84-10.88Q141.31-11.90 142.40-13.25ZM155.97 0L148.93 0L156.61-42.24L170.37-42.24L180.35-13.18L185.66-42.24L192.77-42.18L184.96 0L170.30 0L161.09-27.97L155.97 0ZM219.33-29.57L219.33-29.57L219.33-29.57Q220.29-31.49 220.29-33.28L220.29-33.28L220.29-33.28Q220.29-35.07 220.10-36.06L220.10-36.06L220.10-36.06Q219.90-37.06 219.46-37.82L219.46-37.82L219.46-37.82Q218.50-39.49 216.58-39.49L216.58-39.49L216.58-39.49Q214.21-39.49 212.29-37.76L212.29-37.76L212.29-37.76Q210.24-35.97 210.24-33.15L210.24-33.15L210.24-33.15Q210.24-31.36 211.49-29.98L211.49-29.98L211.49-29.98Q212.74-28.61 214.66-27.33L214.66-27.33L214.66-27.33Q216.58-26.05 218.75-24.77L218.75-24.77L218.75-24.77Q220.93-23.49 222.85-21.95L222.85-21.95L222.85-21.95Q227.26-18.43 227.26-13.70L227.26-13.70L227.26-13.70Q227.26-10.50 225.57-7.78L225.57-7.78L225.57-7.78Q223.87-5.06 221.06-3.07L221.06-3.07L221.06-3.07Q214.91 1.28 206.78 1.28L206.78 1.28L206.78 1.28Q200.19 1.28 196.80-0.86L196.80-0.86L196.80-0.86Q193.41-3.01 193.41-6.27L193.41-6.27L193.41-6.27Q193.41-12.10 197.95-13.57L197.95-13.57L197.95-13.57Q199.23-14.02 201.18-14.02L201.18-14.02L201.18-14.02Q203.14-14.02 205.38-13.18L205.38-13.18L205.38-13.18Q204.35-10.56 204.35-8.19L204.35-8.19L204.35-8.19Q204.35-3.07 208.00-3.07L208.00-3.07L208.00-3.07Q210.37-3.07 212.32-4.80L212.32-4.80L212.32-4.80Q214.27-6.53 214.27-8.48L214.27-8.48L214.27-8.48Q214.27-10.43 213.02-11.84L213.02-11.84L213.02-11.84Q211.78-13.25 209.92-14.37L209.92-14.37L209.92-14.37Q208.06-15.49 205.92-16.58L205.92-16.58L205.92-16.58Q203.78-17.66 201.92-19.20L201.92-19.20L201.92-19.20Q197.57-22.72 197.57-28.35L197.57-28.35L197.57-28.35Q197.57-32 199.36-34.85L199.36-34.85L199.36-34.85Q201.15-37.70 204.03-39.62L204.03-39.62L204.03-39.62Q209.79-43.52 216.86-43.52L216.86-43.52L216.86-43.52Q223.94-43.52 227.36-41.41L227.36-41.41L227.36-41.41Q230.78-39.30 230.78-35.71L230.78-35.71L230.78-35.71Q230.78-32.58 228.35-30.59L228.35-30.59L228.35-30.59Q226.24-28.93 223.68-28.93L223.68-28.93L223.68-28.93Q221.12-28.93 219.33-29.57Z" fill="#eb6c6c"></path></g></g><style>text {
  font-size: 64px;
  font-family: Arial Black;
  dominant-baseline: central;
  text-anchor: middle;
}</style></svg>